PathFileType	4	(X/Y/Z)	C:/Users/opensim2020/Desktop/walking_exp_matlab/subject02_walking06_straight_01.trc	
DataRate	CameraRate	NumFrames	NumMarkers	Units	OrigDataRate	OrigDataStartFrame	OrigNumFrames	
100.00	100.00	4	41	mm	100.00	857	205	
Frame#	Time	LFHD			RFHD			LBHD			RBHD			C7			T10			CLAV			STRN			RBAK			LSHO			LUPA			LELB			LFRM			LWRA			LWRB			LFIN			RSHO			RUPA			RELB			RFRM			RWRA			RWRB			RFIN			LASI			RASI			LPSI			RPSI			LTHI			LKNE			LTIB			LANK			LHEE			LTOE			RTHI			RKNE			RTIB			RANK			RHEE			RTOE			*39			*40			
		X1	Y1	Z1	X2	Y2	Z2	X3	Y3	Z3	X4	Y4	Z4	X5	Y5	Z5	X6	Y6	Z6	X7	Y7	Z7	X8	Y8	Z8	X9	Y9	Z9	X10	Y10	Z10	X11	Y11	Z11	X12	Y12	Z12	X13	Y13	Z13	X14	Y14	Z14	X15	Y15	Z15	X16	Y16	Z16	X17	Y17	Z17	X18	Y18	Z18	X19	Y19	Z19	X20	Y20	Z20	X21	Y21	Z21	X22	Y22	Z22	X23	Y23	Z23	X24	Y24	Z24	X25	Y25	Z25	X26	Y26	Z26	X27	Y27	Z27	X28	Y28	Z28	X29	Y29	Z29	X30	Y30	Z30	X31	Y31	Z31	X32	Y32	Z32	X33	Y33	Z33	X34	Y34	Z34	X35	Y35	Z35	X36	Y36	Z36	X37	Y37	Z37	X38	Y38	Z38	X39	Y39	Z39	X40	Y40	Z40	X41	Y41	Z41	

103	1.020	1376.54614	-134.58658	1753.09070	1520.18567	-135.44360	1737.27356	1365.77173	-246.24931	1651.76025	1507.71326	-258.79102	1632.10046	1437.86230	-283.61276	1523.33179	1441.44922	-339.95682	1250.21509	1432.30432	-144.42686	1457.62402	1446.59827	-93.93768	1283.95581	1504.91504	-344.86856	1354.17346	1259.42236	-201.86880	1494.59363	1173.07910	-204.13283	1292.93494	1158.08240	-200.41095	1152.93335	1144.08850	-180.98155	1022.94891	1179.16003	-120.41703	901.20050	1140.95947	-161.63289	901.90936	1136.19727	-136.97166	840.71558	1626.64063	-206.47037	1495.68835	1714.95703	-229.73210	1306.35339	1735.59424	-206.65115	1160.04138	1746.87891	-159.60019	1047.05273	1716.04871	-95.07446	930.34833	1754.43005	-136.16898	918.92474	1748.29053	-89.79016	862.75598	1317.57385	-93.24326	993.97290	1572.95239	-115.62727	971.98712	1380.05835	-310.68951	1032.66650	1494.50085	-324.09583	1026.54480	1264.69946	-132.62364	681.11804	1298.87439	-151.74260	478.15768	1302.00964	-199.75555	287.96777	1346.23914	-190.56108	67.42915	1395.79260	-229.14130	39.95152	1342.81787	-34.03880	33.58418	1645.06287	-164.70831	666.38684	1630.72363	-143.74286	470.12589	1613.77319	-285.26318	356.09756	1566.11023	-412.01846	215.95341	1497.62451	-454.49084	187.12592	1617.19165	-350.18842	76.52097	1461.71130	-251.00700	1795.97949	-3357.49780	2845.89404	1033.97302 
104	1.030	1376.25684	-125.43649	1753.74756	1519.97107	-126.22298	1737.90833	1365.54724	-237.03400	1652.37488	1507.75549	-249.31570	1632.73987	1437.36328	-274.50125	1524.08667	1440.65027	-330.92352	1250.99902	1431.91370	-135.29549	1458.25928	1445.81396	-85.08919	1284.48328	1503.78809	-335.83856	1354.63428	1259.19556	-192.26779	1495.89539	1172.59485	-191.56113	1294.48901	1157.06702	-185.32816	1154.43579	1143.99890	-161.73473	1024.74438	1180.30286	-97.60318	905.55066	1141.87976	-138.59064	904.44391	1137.67310	-111.65916	844.27002	1626.20715	-197.33292	1496.19006	1714.65063	-221.28964	1307.07080	1734.72998	-199.91183	1160.52014	1746.11963	-154.17987	1046.89673	1715.59192	-90.97203	929.25525	1754.05310	-132.44820	918.50452	1747.85413	-87.06670	861.72839	1316.52588	-85.49789	994.71594	1571.43762	-106.01672	973.42596	1380.10376	-302.41177	1033.23059	1494.62830	-315.12418	1027.38672	1264.21033	-128.13448	680.79089	1298.54077	-149.70013	478.09641	1302.47412	-199.01042	288.07489	1346.17200	-191.10127	67.71297	1396.05896	-229.25160	40.30581	1342.69629	-33.95140	33.48974	1645.08826	-150.15065	668.41766	1629.78540	-125.81651	472.21851	1613.34644	-264.20535	354.15314	1566.16541	-386.85901	209.75383	1498.36633	-428.70865	179.09766	1617.73120	-319.10480	73.52903	1461.54004	-241.91570	1796.60315	-3360.21265	2845.13721	1033.91309 
105	1.040	1376.34863	-116.01458	1754.57910	1519.83411	-116.93879	1738.46753	1365.34863	-227.73445	1652.91089	1507.59058	-239.98050	1633.16162	1436.97766	-265.21548	1524.76807	1439.94519	-321.94949	1251.77209	1431.62976	-126.13892	1458.80151	1445.12292	-76.15099	1284.93921	1503.25305	-326.84827	1355.57324	1258.99731	-182.65092	1496.96680	1172.23938	-178.90637	1295.97253	1156.18359	-170.38048	1155.96985	1144.18811	-142.30896	1026.76245	1181.59424	-74.88598	910.17346	1142.90417	-115.56726	907.14557	1138.94543	-86.33599	848.42487	1625.84485	-188.28008	1496.52466	1714.16101	-213.19748	1307.53540	1733.79248	-193.20137	1160.77185	1745.46509	-148.88628	1046.72400	1714.96484	-87.42315	928.10675	1753.69519	-128.74208	918.05743	1747.37781	-84.29214	860.37384	1315.37573	-77.88472	995.28033	1569.83472	-96.32681	974.64087	1380.29480	-294.18234	1033.69031	1494.99695	-306.29745	1028.30408	1264.08118	-123.98112	680.40063	1298.35522	-147.46658	477.96356	1302.39270	-198.41080	288.39465	1346.48169	-191.01184	67.64471	1396.21838	-229.31775	40.36350	1342.57349	-33.92115	33.38489	1645.14429	-135.82861	670.42273	1628.98682	-108.16952	474.26608	1613.10742	-242.96458	351.76761	1566.87634	-360.72583	203.15938	1499.21106	-402.24182	170.44797	1617.93127	-287.25388	70.03614	1461.41296	-232.73128	1797.23291	-3360.40869	2845.19800	1033.80322 
106	1.050	1376.12036	-106.90958	1754.88916	1519.74426	-107.68471	1738.88855	1365.25439	-218.54874	1653.36682	1507.54614	-230.67668	1633.50671	1436.67456	-256.06357	1525.31592	1439.37695	-313.06287	1252.39905	1431.40564	-117.00536	1459.25171	1444.43250	-67.29214	1285.30249	1502.65991	-317.83490	1356.13440	1258.88562	-173.11703	1498.05371	1171.85046	-166.38301	1297.49255	1155.27393	-155.50264	1157.42590	1144.23438	-123.63611	1029.05212	1182.99219	-52.39942	915.03851	1144.08923	-93.23793	910.23376	1140.67212	-61.24821	852.71350	1625.44348	-179.39511	1496.67395	1713.72180	-205.29720	1307.76184	1733.07166	-186.59459	1160.92456	1745.42358	-143.43474	1046.48535	1714.83411	-83.44883	927.03015	1753.46948	-125.04060	917.50269	1747.02234	-81.48193	858.95001	1314.20483	-70.34757	995.66577	1568.22791	-86.56786	975.64960	1380.69275	-286.04559	1034.12610	1495.54541	-297.37439	1029.15271	1264.17615	-119.91638	680.01947	1298.28125	-144.84180	477.77686	1302.39148	-197.10550	288.69955	1346.63733	-190.96199	67.69303	1396.07153	-229.57025	40.53323	1342.43225	-33.91978	33.31026	1645.10242	-121.94020	672.27148	1628.17603	-90.96219	476.04651	1613.28247	-221.48273	348.91461	1567.63086	-334.09229	195.95862	1500.38489	-374.89694	161.25194	1618.14807	-254.54369	66.49425	1461.74939	-223.44347	1797.83484	-3360.40454	2845.37207	1033.83826 
